<?xml version="1.0" standalone="no"?>
<!DOCTYPE svg PUBLIC "-//W3C//DTD SVG 20010904//EN"
 "http://www.w3.org/TR/2001/REC-SVG-20010904/DTD/svg10.dtd">
<svg version="1.0" xmlns="http://www.w3.org/2000/svg"
 width="300.000000pt" height="46.000000pt" viewBox="0 0 300.000000 46.000000"
 preserveAspectRatio="xMidYMid meet">
<metadata>
Created by potrace 1.10, written by Peter Selinger 2001-2011
</metadata>
<g transform="translate(0.000000,46.000000) scale(0.100000,-0.100000)"
fill="#ffffff" stroke="none">
<path d="M1259 378 c0 -2 -1 -54 -2 -115 -3 -111 3 -129 30 -102 8 8 13 8 17
0 11 -18 54 -13 76 9 27 27 25 66 -4 93 -24 22 -24 23 -5 35 48 30 7 82 -64
82 -26 0 -47 -1 -48 -2z m89 -45 c2 -13 -5 -27 -19 -37 -13 -8 -21 -17 -18
-18 2 -2 13 -8 24 -14 23 -13 32 -61 15 -78 -8 -8 -15 -6 -25 8 -8 10 -18 15
-24 11 -12 -7 -16 111 -5 140 9 23 48 15 52 -12z"/>
<path d="M1438 373 c-20 -5 -23 -19 -7 -29 7 -4 10 -38 8 -98 -4 -80 -2 -91
14 -94 15 -3 17 7 17 112 0 64 -3 115 -7 115 -5 -1 -16 -3 -25 -6z"/>
<path d="M1716 300 c-49 -9 -66 -32 -66 -86 0 -44 19 -70 45 -60 19 7 20 36 0
36 -20 0 -20 63 0 80 24 20 28 8 28 -79 0 -58 -5 -88 -17 -105 -21 -32 -20
-35 4 -29 35 9 41 30 44 142 1 61 2 110 2 110 -1 -1 -19 -5 -40 -9z"/>
<path d="M1538 293 c-27 -7 -21 -23 7 -23 34 0 53 -39 37 -75 -6 -14 -18 -25
-27 -25 -18 0 -29 40 -20 69 9 30 -13 27 -26 -3 -26 -56 20 -103 76 -78 29 13
44 74 25 97 -10 12 -10 18 0 30 11 13 8 15 -21 14 -19 -1 -42 -3 -51 -6z"/>
</g>
</svg>
